<svg xmlns="http://www.w3.org/2000/svg" width="800" height="373pt" version="1.1" viewBox="0 0 600 373"><g id="#333333ff"><path fill="#333" d="M 176.54 0.00 L 182.21 0.00 C 188.51 0.56 194.85 0.86 201.06 2.09 C 229.83 7.24 255.82 24.59 272.85 48.16 C 277.90 55.22 281.74 63.04 285.53 70.83 C 296.18 61.21 310.73 56.33 325.02 57.17 C 342.15 57.54 358.42 66.90 368.36 80.69 C 382.09 98.83 382.77 125.53 370.12 144.41 C 379.34 147.02 388.52 150.20 396.57 155.51 C 412.78 165.98 425.30 182.03 431.78 200.18 C 440.01 224.61 436.97 252.89 422.40 274.34 C 427.73 278.82 432.89 283.81 435.87 290.23 C 441.78 302.02 441.35 315.61 440.83 328.44 C 447.34 325.88 454.67 325.62 461.17 328.35 C 461.03 316.55 461.10 304.75 461.11 292.95 C 461.08 287.77 462.72 282.80 464.75 278.10 C 462.38 273.41 460.68 268.24 461.15 262.92 C 461.77 250.76 472.86 240.34 484.98 240.21 C 496.90 239.65 508.20 249.16 509.92 260.92 C 511.04 266.90 509.17 272.91 506.45 278.20 C 506.95 279.46 507.46 280.74 507.97 282.01 C 516.69 274.14 527.44 268.10 539.23 266.63 C 557.15 264.02 576.17 271.32 587.66 285.34 C 594.81 293.84 598.89 304.63 600.00 315.62 L 600.00 323.21 C 598.61 338.70 590.88 353.98 577.80 362.78 C 569.52 367.96 560.28 371.96 550.48 373.00 L 542.76 373.00 C 529.91 371.78 517.58 366.16 508.31 357.17 C 505.79 362.37 502.14 367.32 496.75 369.79 C 487.40 374.50 475.56 372.33 467.98 365.28 C 459.06 374.59 443.11 374.31 434.00 365.42 C 427.01 372.00 416.33 374.11 407.39 370.60 C 400.07 368.02 395.02 361.36 392.98 354.04 C 390.72 360.13 387.20 366.20 381.27 369.32 C 372.00 374.62 359.74 372.72 351.95 365.60 C 347.30 369.75 341.29 372.43 334.99 372.36 C 330.90 372.60 327.12 370.78 323.13 370.37 C 318.23 371.30 313.40 372.70 308.40 373.00 L 302.60 373.00 C 289.59 372.03 276.84 366.66 267.64 357.30 C 264.82 362.65 260.91 367.82 255.14 370.17 C 245.94 374.38 234.17 372.15 227.32 364.66 C 224.48 361.72 222.91 357.87 221.41 354.14 C 219.15 360.32 215.43 366.32 209.35 369.33 C 200.48 374.24 188.48 372.93 181.19 365.78 C 177.72 362.51 175.59 358.14 174.08 353.69 C 171.89 360.98 166.86 367.67 159.63 370.53 C 150.59 374.30 139.66 371.89 132.72 365.06 C 125.25 372.23 113.43 374.42 104.03 369.93 C 98.41 367.47 94.52 362.39 92.10 356.90 C 83.08 366.37 70.47 371.98 57.48 373.00 L 50.74 373.00 C 36.78 371.90 23.06 365.79 13.74 355.19 C 5.51 346.27 1.11 334.37 0.00 322.39 L 0.00 317.36 C 0.49 312.64 1.18 307.91 2.59 303.37 C 6.58 290.24 16.18 279.33 27.91 272.44 C 8.93 247.20 4.08 212.54 13.73 182.67 C 22.27 157.00 41.31 134.79 66.11 123.65 C 65.29 110.50 66.27 97.20 69.60 84.43 C 77.41 53.33 99.94 26.83 128.19 12.14 C 143.08 4.30 159.83 0.82 176.54 0.00 M 229.27 66.18 C 225.79 74.45 224.06 83.36 220.47 91.60 C 220.08 92.85 218.85 93.39 217.82 94.01 C 190.59 109.06 163.47 124.28 136.16 139.19 C 127.43 136.94 118.65 134.85 109.89 132.72 C 106.48 131.92 102.78 134.13 101.61 137.38 C 100.13 140.64 102.41 144.71 105.88 145.38 C 114.57 147.69 123.31 149.78 132.04 151.95 C 137.28 160.92 141.96 170.20 147.26 179.14 C 140.08 183.40 132.67 187.27 125.37 191.35 C 121.98 193.01 119.88 197.61 122.01 201.02 C 124.11 204.19 128.76 204.61 131.84 202.65 C 138.97 198.64 146.25 194.88 153.23 190.59 C 158.51 199.26 164.86 207.41 173.40 213.11 C 170.47 223.73 167.63 234.37 164.95 245.06 C 163.17 250.18 169.83 255.19 174.35 252.39 C 176.61 251.44 177.94 249.19 178.61 246.93 C 181.32 237.42 183.17 227.66 186.33 218.28 C 198.97 221.00 212.46 219.21 224.01 213.40 C 208.44 186.06 193.45 158.41 178.13 130.93 C 182.45 128.49 186.80 126.14 191.11 123.68 C 206.35 151.12 221.58 178.57 236.87 205.99 C 247.78 200.03 255.33 189.57 260.57 178.56 C 270.42 181.02 280.27 183.48 290.15 185.84 C 294.09 186.91 298.53 183.98 299.29 180.01 C 299.84 176.67 297.27 173.30 293.99 172.68 C 283.77 170.09 273.48 167.77 263.29 165.06 C 263.52 154.39 260.31 143.84 254.81 134.74 C 261.88 130.35 269.37 126.71 276.54 122.50 C 278.95 121.22 280.73 118.79 280.90 116.02 C 281.06 110.77 274.21 108.22 270.28 111.13 C 263.15 115.24 255.77 118.89 248.76 123.21 C 243.41 114.33 238.43 105.20 233.74 95.97 C 234.97 89.08 238.03 82.52 239.89 75.74 C 240.77 72.11 243.69 67.79 240.69 64.41 C 237.71 60.55 231.09 61.82 229.27 66.18 M 139.08 95.90 C 135.89 104.43 136.84 114.14 140.96 122.18 C 162.22 110.66 183.28 98.76 204.41 87.00 C 199.88 79.63 192.67 73.83 184.20 71.75 C 165.96 66.66 145.04 77.98 139.08 95.90 M 110.38 251.38 C 106.08 253.44 104.47 258.58 104.56 263.04 C 104.48 290.37 104.53 317.70 104.52 345.02 C 104.51 348.63 105.17 352.53 107.75 355.25 C 111.47 359.03 118.33 358.95 121.94 355.04 C 124.36 352.32 124.97 348.53 125.01 345.01 C 125.03 318.00 125.01 291.00 125.02 263.99 C 124.96 260.50 124.48 256.78 122.28 253.93 C 119.57 250.39 114.32 249.58 110.38 251.38 M 359.16 261.94 C 359.09 289.63 359.10 317.31 359.12 345.00 C 359.14 348.04 359.43 351.25 361.14 353.87 C 364.12 358.60 371.60 359.57 375.67 355.71 C 378.20 353.19 379.18 349.51 379.18 346.03 C 379.29 335.32 379.13 324.61 379.24 313.90 C 379.13 307.08 385.31 301.09 392.04 300.92 C 398.91 300.25 405.94 305.96 406.05 312.99 C 406.41 323.65 406.08 334.32 406.19 344.98 C 406.20 347.98 406.58 351.12 408.27 353.68 C 411.32 358.66 419.17 359.56 423.26 355.39 C 425.97 352.67 426.60 348.64 426.59 344.97 C 426.61 335.63 426.52 326.30 426.64 316.97 C 426.70 310.60 426.17 304.06 423.63 298.14 C 420.89 291.56 415.42 286.28 408.91 283.48 C 399.69 279.38 388.91 279.62 379.56 283.18 C 379.25 275.08 380.10 266.93 379.08 258.87 C 378.45 253.31 372.45 249.20 367.04 250.63 C 361.79 251.41 359.03 257.08 359.16 261.94 M 481.45 255.46 C 478.83 256.80 476.79 259.22 475.93 262.04 C 474.06 267.63 478.35 273.89 483.98 274.94 C 490.60 276.28 497.18 269.45 495.71 262.88 C 494.57 256.80 487.14 252.42 481.45 255.46 M 26.43 291.40 C 18.47 298.97 14.03 310.04 14.49 321.01 C 14.84 335.67 24.36 349.55 37.80 355.34 C 51.88 361.52 70.01 359.11 80.77 347.70 C 84.21 344.27 84.79 337.53 80.46 334.58 C 76.78 331.95 71.99 333.61 68.37 335.49 C 63.71 338.06 58.46 339.98 53.05 339.55 C 45.55 339.08 38.73 333.63 36.35 326.54 C 51.55 326.31 66.76 326.58 81.97 326.40 C 87.82 326.49 92.80 320.63 92.00 314.89 C 90.68 300.18 79.97 286.82 65.89 282.36 C 52.41 277.84 36.62 281.51 26.43 291.40 M 140.23 291.92 C 140.09 308.96 140.22 325.99 140.16 343.03 C 140.22 346.87 140.39 351.04 142.70 354.30 C 145.79 358.64 152.73 359.32 156.64 355.71 C 159.89 352.79 160.64 348.17 160.66 344.01 C 160.73 333.68 160.54 323.34 160.70 313.00 C 160.73 306.15 167.34 300.46 174.06 300.87 C 180.74 300.63 187.09 306.21 187.48 312.92 C 187.97 324.60 187.24 336.30 187.78 347.99 C 187.91 351.12 189.47 354.15 191.91 356.12 C 195.68 359.11 201.73 358.51 204.84 354.83 C 207.17 352.14 207.66 348.41 207.71 344.97 C 207.80 334.31 207.61 323.64 207.78 312.99 C 208.02 305.88 215.04 300.27 222.00 300.90 C 228.46 300.93 234.37 306.41 234.59 312.93 C 234.81 323.31 234.62 333.69 234.65 344.07 C 234.69 347.27 234.95 350.65 236.72 353.43 C 239.51 358.21 246.72 359.52 250.99 355.97 C 254.18 353.35 255.11 348.97 255.12 345.04 C 255.14 335.36 255.03 325.69 255.18 316.03 C 255.23 307.80 253.83 299.11 248.86 292.33 C 243.35 284.83 234.00 281.02 224.91 280.57 C 215.44 279.80 205.44 281.86 197.95 287.95 C 186.79 279.90 171.12 277.68 158.74 284.24 C 155.80 281.76 152.02 279.54 148.04 280.66 C 142.94 281.63 140.11 287.08 140.23 291.92 M 292.47 282.63 C 280.64 286.80 271.15 296.98 267.77 309.06 C 264.84 319.34 266.48 330.81 272.11 339.89 C 277.04 348.02 285.02 354.25 294.12 356.99 C 304.48 360.14 316.16 358.82 325.40 353.10 C 328.32 357.11 333.83 359.52 338.58 357.31 C 343.21 355.24 344.80 349.71 344.68 345.02 C 344.64 327.67 344.76 310.32 344.62 292.98 C 344.73 288.29 342.39 283.02 337.64 281.53 C 333.07 279.91 328.20 282.35 325.40 285.99 C 315.60 280.16 303.24 278.76 292.47 282.63 M 482.44 281.61 C 477.73 283.08 475.49 288.34 475.56 292.95 C 475.46 309.95 475.57 326.96 475.50 343.96 C 475.47 347.65 475.75 351.68 478.21 354.65 C 481.74 359.06 489.19 359.15 492.95 354.98 C 495.32 352.26 495.92 348.51 495.94 345.02 C 495.91 328.35 495.92 311.67 495.94 294.99 C 495.90 291.43 495.56 287.61 493.31 284.69 C 490.89 281.40 486.21 280.31 482.44 281.61 M 539.12 281.17 C 530.15 282.93 521.77 287.81 516.10 295.01 C 508.17 304.55 505.42 318.04 508.78 329.96 C 510.94 338.02 515.96 345.17 522.43 350.40 C 530.92 357.09 542.28 359.88 552.92 358.16 C 563.31 356.59 572.82 350.41 578.75 341.77 C 584.32 333.81 586.60 323.70 585.27 314.09 C 583.81 302.87 577.06 292.54 567.53 286.50 C 559.21 281.13 548.80 279.27 539.12 281.17 M 447.40 341.47 C 442.95 343.72 440.45 350.06 443.67 354.30 C 447.08 359.34 455.85 359.25 458.60 353.58 C 462.54 347.05 454.36 337.42 447.40 341.47 Z" opacity="1"/><path fill="#333" d="M 302.53 300.62 C 308.44 299.55 314.77 301.79 318.93 306.07 C 326.54 313.59 325.82 327.63 317.55 334.41 C 311.36 339.59 301.91 340.07 295.10 335.81 C 287.91 331.50 284.49 322.01 287.02 314.07 C 288.87 306.99 295.33 301.57 302.53 300.62 Z" opacity="1"/><path fill="#333" d="M 46.37 302.23 C 55.26 298.42 66.98 302.63 70.63 311.79 C 59.25 311.81 47.87 311.97 36.50 311.72 C 37.83 307.05 42.09 304.01 46.37 302.23 Z" opacity="1"/><path fill="#333" d="M 541.38 301.39 C 547.84 299.67 555.06 301.49 559.83 306.21 C 565.82 311.67 567.09 321.29 563.27 328.32 C 559.83 334.80 552.46 338.98 545.11 338.32 C 535.90 337.75 527.47 329.38 527.87 319.96 C 527.25 311.59 533.46 303.67 541.38 301.39 Z" opacity="1"/></g><g id="#ffffffff"><path fill="#fff" d="M 229.27 66.18 C 231.09 61.82 237.71 60.55 240.69 64.41 C 243.69 67.79 240.77 72.11 239.89 75.74 C 238.03 82.52 234.97 89.08 233.74 95.97 C 238.43 105.20 243.41 114.33 248.76 123.21 C 255.77 118.89 263.15 115.24 270.28 111.13 C 274.21 108.22 281.06 110.77 280.90 116.02 C 280.73 118.79 278.95 121.22 276.54 122.50 C 269.37 126.71 261.88 130.35 254.81 134.74 C 260.31 143.84 263.52 154.39 263.29 165.06 C 273.48 167.77 283.77 170.09 293.99 172.68 C 297.27 173.30 299.84 176.67 299.29 180.01 C 298.53 183.98 294.09 186.91 290.15 185.84 C 280.27 183.48 270.42 181.02 260.57 178.56 C 255.33 189.57 247.78 200.03 236.87 205.99 C 221.58 178.57 206.35 151.12 191.11 123.68 C 186.80 126.14 182.45 128.49 178.13 130.93 C 193.45 158.41 208.44 186.06 224.01 213.40 C 212.46 219.21 198.97 221.00 186.33 218.28 C 183.17 227.66 181.32 237.42 178.61 246.93 C 177.94 249.19 176.61 251.44 174.35 252.39 C 169.83 255.19 163.17 250.18 164.95 245.06 C 167.63 234.37 170.47 223.73 173.40 213.11 C 164.86 207.41 158.51 199.26 153.23 190.59 C 146.25 194.88 138.97 198.64 131.84 202.65 C 128.76 204.61 124.11 204.19 122.01 201.02 C 119.88 197.61 121.98 193.01 125.37 191.35 C 132.67 187.27 140.08 183.40 147.26 179.14 C 141.96 170.20 137.28 160.92 132.04 151.95 C 123.31 149.78 114.57 147.69 105.88 145.38 C 102.41 144.71 100.13 140.64 101.61 137.38 C 102.78 134.13 106.48 131.92 109.89 132.72 C 118.65 134.85 127.43 136.94 136.16 139.19 C 163.47 124.28 190.59 109.06 217.82 94.01 C 218.85 93.39 220.08 92.85 220.47 91.60 C 224.06 83.36 225.79 74.45 229.27 66.18 Z" opacity="1"/><path fill="#fff" d="M 139.08 95.90 C 145.04 77.98 165.96 66.66 184.20 71.75 C 192.67 73.83 199.88 79.63 204.41 87.00 C 183.28 98.76 162.22 110.66 140.96 122.18 C 136.84 114.14 135.89 104.43 139.08 95.90 Z" opacity="1"/><path fill="#fff" d="M 110.38 251.38 C 114.32 249.58 119.57 250.39 122.28 253.93 C 124.48 256.78 124.96 260.50 125.02 263.99 C 125.01 291.00 125.03 318.00 125.01 345.01 C 124.97 348.53 124.36 352.32 121.94 355.04 C 118.33 358.95 111.47 359.03 107.75 355.25 C 105.17 352.53 104.51 348.63 104.52 345.02 C 104.53 317.70 104.48 290.37 104.56 263.04 C 104.47 258.58 106.08 253.44 110.38 251.38 Z" opacity="1"/><path fill="#fff" d="M 359.16 261.94 C 359.03 257.08 361.79 251.41 367.04 250.63 C 372.45 249.20 378.45 253.31 379.08 258.87 C 380.10 266.93 379.25 275.08 379.56 283.18 C 388.91 279.62 399.69 279.38 408.91 283.48 C 415.42 286.28 420.89 291.56 423.63 298.14 C 426.17 304.06 426.70 310.60 426.64 316.97 C 426.52 326.30 426.61 335.63 426.59 344.97 C 426.60 348.64 425.97 352.67 423.26 355.39 C 419.17 359.56 411.32 358.66 408.27 353.68 C 406.58 351.12 406.20 347.98 406.19 344.98 C 406.08 334.32 406.41 323.65 406.05 312.99 C 405.94 305.96 398.91 300.25 392.04 300.92 C 385.31 301.09 379.13 307.08 379.24 313.90 C 379.13 324.61 379.29 335.32 379.18 346.03 C 379.18 349.51 378.20 353.19 375.67 355.71 C 371.60 359.57 364.12 358.60 361.14 353.87 C 359.43 351.25 359.14 348.04 359.12 345.00 C 359.10 317.31 359.09 289.63 359.16 261.94 Z" opacity="1"/><path fill="#fff" d="M 481.45 255.46 C 487.14 252.42 494.57 256.80 495.71 262.88 C 497.18 269.45 490.60 276.28 483.98 274.94 C 478.35 273.89 474.06 267.63 475.93 262.04 C 476.79 259.22 478.83 256.80 481.45 255.46 Z" opacity="1"/><path fill="#fff" d="M 26.43 291.40 C 36.62 281.51 52.41 277.84 65.89 282.36 C 79.97 286.82 90.68 300.18 92.00 314.89 C 92.80 320.63 87.82 326.49 81.97 326.40 C 66.76 326.58 51.55 326.31 36.35 326.54 C 38.73 333.63 45.55 339.08 53.05 339.55 C 58.46 339.98 63.71 338.06 68.37 335.49 C 71.99 333.61 76.78 331.95 80.46 334.58 C 84.79 337.53 84.21 344.27 80.77 347.70 C 70.01 359.11 51.88 361.52 37.80 355.34 C 24.36 349.55 14.84 335.67 14.49 321.01 C 14.03 310.04 18.47 298.97 26.43 291.40 M 46.37 302.23 C 42.09 304.01 37.83 307.05 36.50 311.72 C 47.87 311.97 59.25 311.81 70.63 311.79 C 66.98 302.63 55.26 298.42 46.37 302.23 Z" opacity="1"/><path fill="#fff" d="M 140.23 291.92 C 140.11 287.08 142.94 281.63 148.04 280.66 C 152.02 279.54 155.80 281.76 158.74 284.24 C 171.12 277.68 186.79 279.90 197.95 287.95 C 205.44 281.86 215.44 279.80 224.91 280.57 C 234.00 281.02 243.35 284.83 248.86 292.33 C 253.83 299.11 255.23 307.80 255.18 316.03 C 255.03 325.69 255.14 335.36 255.12 345.04 C 255.11 348.97 254.18 353.35 250.99 355.97 C 246.72 359.52 239.51 358.21 236.72 353.43 C 234.95 350.65 234.69 347.27 234.65 344.07 C 234.62 333.69 234.81 323.31 234.59 312.93 C 234.37 306.41 228.46 300.93 222.00 300.90 C 215.04 300.27 208.02 305.88 207.78 312.99 C 207.61 323.64 207.80 334.31 207.71 344.97 C 207.66 348.41 207.17 352.14 204.84 354.83 C 201.73 358.51 195.68 359.11 191.91 356.12 C 189.47 354.15 187.91 351.12 187.78 347.99 C 187.24 336.30 187.97 324.60 187.48 312.92 C 187.09 306.21 180.74 300.63 174.06 300.87 C 167.34 300.46 160.73 306.15 160.70 313.00 C 160.54 323.34 160.73 333.68 160.66 344.01 C 160.64 348.17 159.89 352.79 156.64 355.71 C 152.73 359.32 145.79 358.64 142.70 354.30 C 140.39 351.04 140.22 346.87 140.16 343.03 C 140.22 325.99 140.09 308.96 140.23 291.92 Z" opacity="1"/><path fill="#fff" d="M 292.47 282.63 C 303.24 278.76 315.60 280.16 325.40 285.99 C 328.20 282.35 333.07 279.91 337.64 281.53 C 342.39 283.02 344.73 288.29 344.62 292.98 C 344.76 310.32 344.64 327.67 344.68 345.02 C 344.80 349.71 343.21 355.24 338.58 357.31 C 333.83 359.52 328.32 357.11 325.40 353.10 C 316.16 358.82 304.48 360.14 294.12 356.99 C 285.02 354.25 277.04 348.02 272.11 339.89 C 266.48 330.81 264.84 319.34 267.77 309.06 C 271.15 296.98 280.64 286.80 292.47 282.63 M 302.53 300.62 C 295.33 301.57 288.87 306.99 287.02 314.07 C 284.49 322.01 287.91 331.50 295.10 335.81 C 301.91 340.07 311.36 339.59 317.55 334.41 C 325.82 327.63 326.54 313.59 318.93 306.07 C 314.77 301.79 308.44 299.55 302.53 300.62 Z" opacity="1"/><path fill="#fff" d="M 482.44 281.61 C 486.21 280.31 490.89 281.40 493.31 284.69 C 495.56 287.61 495.90 291.43 495.94 294.99 C 495.92 311.67 495.91 328.35 495.94 345.02 C 495.92 348.51 495.32 352.26 492.95 354.98 C 489.19 359.15 481.74 359.06 478.21 354.65 C 475.75 351.68 475.47 347.65 475.50 343.96 C 475.57 326.96 475.46 309.95 475.56 292.95 C 475.49 288.34 477.73 283.08 482.44 281.61 Z" opacity="1"/><path fill="#fff" d="M 539.12 281.17 C 548.80 279.27 559.21 281.13 567.53 286.50 C 577.06 292.54 583.81 302.87 585.27 314.09 C 586.60 323.70 584.32 333.81 578.75 341.77 C 572.82 350.41 563.31 356.59 552.92 358.16 C 542.28 359.88 530.92 357.09 522.43 350.40 C 515.96 345.17 510.94 338.02 508.78 329.96 C 505.42 318.04 508.17 304.55 516.10 295.01 C 521.77 287.81 530.15 282.93 539.12 281.17 M 541.38 301.39 C 533.46 303.67 527.25 311.59 527.87 319.96 C 527.47 329.38 535.90 337.75 545.11 338.32 C 552.46 338.98 559.83 334.80 563.27 328.32 C 567.09 321.29 565.82 311.67 559.83 306.21 C 555.06 301.49 547.84 299.67 541.38 301.39 Z" opacity="1"/><path fill="#fff" d="M 447.40 341.47 C 454.36 337.42 462.54 347.05 458.60 353.58 C 455.85 359.25 447.08 359.34 443.67 354.30 C 440.45 350.06 442.95 343.72 447.40 341.47 Z" opacity="1"/></g></svg>